<mxfile host="app.diagrams.net" modified="2021-03-31T16:40:58.899Z" agent="5.0 (Windows NT 10.0; Win64; x64) AppleWebKit/537.36 (KHTML, like Gecko) Chrome/88.0.4324.190 Safari/537.36" etag="_87V7Bl1yC2d-LQvLUB_" version="14.5.3" type="github">
  <diagram id="T19K3OvtSC4P023Olb54" name="Page-1">
    <mxGraphModel dx="1888" dy="1623" grid="1" gridSize="10" guides="1" tooltips="1" connect="1" arrows="1" fold="1" page="1" pageScale="1" pageWidth="850" pageHeight="1100" math="0" shadow="0">
      <root>
        <mxCell id="0" />
        <mxCell id="1" parent="0" />
        <mxCell id="1g4MeJjmqKyL9iV5NwRu-45" value="" style="whiteSpace=wrap;html=1;aspect=fixed;" parent="1" vertex="1">
          <mxGeometry x="60" y="-520" width="2020" height="2020" as="geometry" />
        </mxCell>
        <mxCell id="1g4MeJjmqKyL9iV5NwRu-1" value="Userr" style="shape=umlActor;verticalLabelPosition=bottom;verticalAlign=top;html=1;outlineConnect=0;" parent="1" vertex="1">
          <mxGeometry x="-30" y="-30" width="30" height="60" as="geometry" />
        </mxCell>
        <mxCell id="1g4MeJjmqKyL9iV5NwRu-2" value="Log In" style="ellipse;whiteSpace=wrap;html=1;" parent="1" vertex="1">
          <mxGeometry x="320" y="260" width="120" height="80" as="geometry" />
        </mxCell>
        <mxCell id="1g4MeJjmqKyL9iV5NwRu-5" value="ADMIN" style="shape=umlActor;verticalLabelPosition=bottom;verticalAlign=top;html=1;outlineConnect=0;" parent="1" vertex="1">
          <mxGeometry x="-50" y="700" width="71" height="160" as="geometry" />
        </mxCell>
        <mxCell id="1g4MeJjmqKyL9iV5NwRu-7" value="Add a new Restaurant" style="ellipse;whiteSpace=wrap;html=1;" parent="1" vertex="1">
          <mxGeometry x="320" y="360" width="120" height="80" as="geometry" />
        </mxCell>
        <mxCell id="1g4MeJjmqKyL9iV5NwRu-8" value="Edit an already added restaurant" style="ellipse;whiteSpace=wrap;html=1;" parent="1" vertex="1">
          <mxGeometry x="320" y="460" width="120" height="80" as="geometry" />
        </mxCell>
        <mxCell id="1g4MeJjmqKyL9iV5NwRu-9" value="Add Dish to created restaurant" style="ellipse;whiteSpace=wrap;html=1;" parent="1" vertex="1">
          <mxGeometry x="320" y="570" width="120" height="80" as="geometry" />
        </mxCell>
        <mxCell id="1g4MeJjmqKyL9iV5NwRu-10" value="Edit Dish&amp;nbsp;" style="ellipse;whiteSpace=wrap;html=1;" parent="1" vertex="1">
          <mxGeometry x="320" y="680" width="120" height="80" as="geometry" />
        </mxCell>
        <mxCell id="1g4MeJjmqKyL9iV5NwRu-11" value="Add price against each Dish" style="ellipse;whiteSpace=wrap;html=1;" parent="1" vertex="1">
          <mxGeometry x="330" y="780" width="120" height="80" as="geometry" />
        </mxCell>
        <mxCell id="1g4MeJjmqKyL9iV5NwRu-12" value="Edit Price of dish" style="ellipse;whiteSpace=wrap;html=1;" parent="1" vertex="1">
          <mxGeometry x="330" y="890" width="120" height="80" as="geometry" />
        </mxCell>
        <mxCell id="1g4MeJjmqKyL9iV5NwRu-13" value="Delete Restaurant" style="ellipse;whiteSpace=wrap;html=1;" parent="1" vertex="1">
          <mxGeometry x="330" y="1000" width="120" height="80" as="geometry" />
        </mxCell>
        <mxCell id="1g4MeJjmqKyL9iV5NwRu-14" value="Delete Dish" style="ellipse;whiteSpace=wrap;html=1;" parent="1" vertex="1">
          <mxGeometry x="330" y="1110" width="120" height="80" as="geometry" />
        </mxCell>
        <mxCell id="1g4MeJjmqKyL9iV5NwRu-16" value="Publish Restaurant along with other details" style="ellipse;whiteSpace=wrap;html=1;" parent="1" vertex="1">
          <mxGeometry x="320" y="1410" width="120" height="80" as="geometry" />
        </mxCell>
        <mxCell id="1g4MeJjmqKyL9iV5NwRu-17" value="Add restaurant Open Timings" style="ellipse;whiteSpace=wrap;html=1;" parent="1" vertex="1">
          <mxGeometry x="330" y="1210" width="120" height="80" as="geometry" />
        </mxCell>
        <mxCell id="1g4MeJjmqKyL9iV5NwRu-18" value="Edit restaurant Open Timings" style="ellipse;whiteSpace=wrap;html=1;" parent="1" vertex="1">
          <mxGeometry x="330" y="1290" width="120" height="80" as="geometry" />
        </mxCell>
        <mxCell id="1g4MeJjmqKyL9iV5NwRu-20" value="" style="endArrow=classic;html=1;exitX=1;exitY=0.3333333333333333;exitDx=0;exitDy=0;exitPerimeter=0;" parent="1" source="1g4MeJjmqKyL9iV5NwRu-5" target="1g4MeJjmqKyL9iV5NwRu-7" edge="1">
          <mxGeometry width="50" height="50" relative="1" as="geometry">
            <mxPoint x="130" y="780" as="sourcePoint" />
            <mxPoint x="180" y="730" as="targetPoint" />
          </mxGeometry>
        </mxCell>
        <mxCell id="1g4MeJjmqKyL9iV5NwRu-21" value="" style="endArrow=classic;html=1;" parent="1" source="1g4MeJjmqKyL9iV5NwRu-5" target="1g4MeJjmqKyL9iV5NwRu-8" edge="1">
          <mxGeometry width="50" height="50" relative="1" as="geometry">
            <mxPoint x="130" y="780" as="sourcePoint" />
            <mxPoint x="180" y="720" as="targetPoint" />
          </mxGeometry>
        </mxCell>
        <mxCell id="1g4MeJjmqKyL9iV5NwRu-22" value="" style="endArrow=classic;html=1;entryX=0.027;entryY=0.768;entryDx=0;entryDy=0;entryPerimeter=0;" parent="1" target="1g4MeJjmqKyL9iV5NwRu-2" edge="1">
          <mxGeometry width="50" height="50" relative="1" as="geometry">
            <mxPoint x="30" y="750" as="sourcePoint" />
            <mxPoint x="59" y="700" as="targetPoint" />
          </mxGeometry>
        </mxCell>
        <mxCell id="1g4MeJjmqKyL9iV5NwRu-23" value="" style="endArrow=classic;html=1;exitX=1;exitY=0.3333333333333333;exitDx=0;exitDy=0;exitPerimeter=0;entryX=-0.013;entryY=0.623;entryDx=0;entryDy=0;entryPerimeter=0;" parent="1" source="1g4MeJjmqKyL9iV5NwRu-5" target="1g4MeJjmqKyL9iV5NwRu-9" edge="1">
          <mxGeometry width="50" height="50" relative="1" as="geometry">
            <mxPoint x="40" y="780" as="sourcePoint" />
            <mxPoint x="90" y="730" as="targetPoint" />
          </mxGeometry>
        </mxCell>
        <mxCell id="1g4MeJjmqKyL9iV5NwRu-24" value="" style="endArrow=classic;html=1;exitX=1;exitY=0.3333333333333333;exitDx=0;exitDy=0;exitPerimeter=0;entryX=0.027;entryY=0.608;entryDx=0;entryDy=0;entryPerimeter=0;" parent="1" source="1g4MeJjmqKyL9iV5NwRu-5" target="1g4MeJjmqKyL9iV5NwRu-10" edge="1">
          <mxGeometry width="50" height="50" relative="1" as="geometry">
            <mxPoint x="60" y="800" as="sourcePoint" />
            <mxPoint x="110" y="750" as="targetPoint" />
          </mxGeometry>
        </mxCell>
        <mxCell id="1g4MeJjmqKyL9iV5NwRu-25" value="" style="endArrow=classic;html=1;exitX=1;exitY=0.3333333333333333;exitDx=0;exitDy=0;exitPerimeter=0;entryX=0;entryY=0.5;entryDx=0;entryDy=0;" parent="1" source="1g4MeJjmqKyL9iV5NwRu-5" target="1g4MeJjmqKyL9iV5NwRu-11" edge="1">
          <mxGeometry width="50" height="50" relative="1" as="geometry">
            <mxPoint x="40" y="820" as="sourcePoint" />
            <mxPoint x="90" y="770" as="targetPoint" />
          </mxGeometry>
        </mxCell>
        <mxCell id="1g4MeJjmqKyL9iV5NwRu-26" value="" style="endArrow=classic;html=1;entryX=0;entryY=0.5;entryDx=0;entryDy=0;" parent="1" target="1g4MeJjmqKyL9iV5NwRu-12" edge="1">
          <mxGeometry width="50" height="50" relative="1" as="geometry">
            <mxPoint x="20" y="750" as="sourcePoint" />
            <mxPoint x="150" y="940" as="targetPoint" />
          </mxGeometry>
        </mxCell>
        <mxCell id="1g4MeJjmqKyL9iV5NwRu-27" value="" style="endArrow=classic;html=1;" parent="1" target="1g4MeJjmqKyL9iV5NwRu-13" edge="1">
          <mxGeometry width="50" height="50" relative="1" as="geometry">
            <mxPoint x="30" y="750" as="sourcePoint" />
            <mxPoint x="120" y="950" as="targetPoint" />
          </mxGeometry>
        </mxCell>
        <mxCell id="1g4MeJjmqKyL9iV5NwRu-28" value="" style="endArrow=classic;html=1;entryX=0.157;entryY=0.073;entryDx=0;entryDy=0;entryPerimeter=0;" parent="1" target="1g4MeJjmqKyL9iV5NwRu-14" edge="1">
          <mxGeometry width="50" height="50" relative="1" as="geometry">
            <mxPoint x="30" y="760" as="sourcePoint" />
            <mxPoint x="90" y="1010" as="targetPoint" />
          </mxGeometry>
        </mxCell>
        <mxCell id="1g4MeJjmqKyL9iV5NwRu-29" value="" style="endArrow=classic;html=1;entryX=0;entryY=0;entryDx=0;entryDy=0;" parent="1" target="1g4MeJjmqKyL9iV5NwRu-17" edge="1">
          <mxGeometry width="50" height="50" relative="1" as="geometry">
            <mxPoint x="30" y="760" as="sourcePoint" />
            <mxPoint x="70" y="990" as="targetPoint" />
          </mxGeometry>
        </mxCell>
        <mxCell id="1g4MeJjmqKyL9iV5NwRu-30" value="" style="endArrow=classic;html=1;exitX=1;exitY=0.3333333333333333;exitDx=0;exitDy=0;exitPerimeter=0;entryX=0;entryY=0;entryDx=0;entryDy=0;" parent="1" source="1g4MeJjmqKyL9iV5NwRu-5" target="1g4MeJjmqKyL9iV5NwRu-18" edge="1">
          <mxGeometry width="50" height="50" relative="1" as="geometry">
            <mxPoint x="50" y="910" as="sourcePoint" />
            <mxPoint x="310" y="1290" as="targetPoint" />
          </mxGeometry>
        </mxCell>
        <mxCell id="1g4MeJjmqKyL9iV5NwRu-31" value="" style="endArrow=classic;html=1;exitX=1;exitY=0.3333333333333333;exitDx=0;exitDy=0;exitPerimeter=0;" parent="1" source="1g4MeJjmqKyL9iV5NwRu-5" target="1g4MeJjmqKyL9iV5NwRu-16" edge="1">
          <mxGeometry width="50" height="50" relative="1" as="geometry">
            <mxPoint x="100" y="1060" as="sourcePoint" />
            <mxPoint x="130" y="1340" as="targetPoint" />
          </mxGeometry>
        </mxCell>
        <mxCell id="1g4MeJjmqKyL9iV5NwRu-32" value="Search for a restaurant by entering the name of the restaurant" style="ellipse;whiteSpace=wrap;html=1;" parent="1" vertex="1">
          <mxGeometry x="265" y="-370" width="120" height="80" as="geometry" />
        </mxCell>
        <mxCell id="1g4MeJjmqKyL9iV5NwRu-33" value="Get Menu for the searched restaurant" style="ellipse;whiteSpace=wrap;html=1;" parent="1" vertex="1">
          <mxGeometry x="270" y="-280" width="120" height="80" as="geometry" />
        </mxCell>
        <mxCell id="1g4MeJjmqKyL9iV5NwRu-34" value="View Menu Items and Price against each Dish" style="ellipse;whiteSpace=wrap;html=1;" parent="1" vertex="1">
          <mxGeometry x="265" y="-180" width="130" height="90" as="geometry" />
        </mxCell>
        <mxCell id="1g4MeJjmqKyL9iV5NwRu-35" value="Select one or multiple Dishes&amp;nbsp;" style="ellipse;whiteSpace=wrap;html=1;" parent="1" vertex="1">
          <mxGeometry x="275" y="-80" width="120" height="80" as="geometry" />
        </mxCell>
        <mxCell id="1g4MeJjmqKyL9iV5NwRu-36" value="View cumulative amount of the selected Dish&amp;nbsp;" style="ellipse;whiteSpace=wrap;html=1;" parent="1" vertex="1">
          <mxGeometry x="280" y="20" width="120" height="80" as="geometry" />
        </mxCell>
        <mxCell id="1g4MeJjmqKyL9iV5NwRu-37" value="View an error for an Invalid restaurant name" style="ellipse;whiteSpace=wrap;html=1;" parent="1" vertex="1">
          <mxGeometry x="280" y="130" width="120" height="80" as="geometry" />
        </mxCell>
        <mxCell id="1g4MeJjmqKyL9iV5NwRu-39" value="" style="endArrow=classic;html=1;" parent="1" edge="1">
          <mxGeometry width="50" height="50" relative="1" as="geometry">
            <mxPoint as="sourcePoint" />
            <mxPoint x="260" y="-330" as="targetPoint" />
          </mxGeometry>
        </mxCell>
        <mxCell id="1g4MeJjmqKyL9iV5NwRu-40" value="" style="endArrow=classic;html=1;entryX=-0.003;entryY=0.638;entryDx=0;entryDy=0;entryPerimeter=0;" parent="1" target="1g4MeJjmqKyL9iV5NwRu-33" edge="1">
          <mxGeometry width="50" height="50" relative="1" as="geometry">
            <mxPoint as="sourcePoint" />
            <mxPoint x="90" as="targetPoint" />
          </mxGeometry>
        </mxCell>
        <mxCell id="1g4MeJjmqKyL9iV5NwRu-41" value="" style="endArrow=classic;html=1;" parent="1" edge="1">
          <mxGeometry width="50" height="50" relative="1" as="geometry">
            <mxPoint as="sourcePoint" />
            <mxPoint x="260" y="-130" as="targetPoint" />
          </mxGeometry>
        </mxCell>
        <mxCell id="1g4MeJjmqKyL9iV5NwRu-42" value="" style="endArrow=classic;html=1;" parent="1" edge="1">
          <mxGeometry width="50" height="50" relative="1" as="geometry">
            <mxPoint as="sourcePoint" />
            <mxPoint x="270" y="-40" as="targetPoint" />
          </mxGeometry>
        </mxCell>
        <mxCell id="1g4MeJjmqKyL9iV5NwRu-43" value="" style="endArrow=classic;html=1;entryX=0;entryY=0.5;entryDx=0;entryDy=0;" parent="1" target="1g4MeJjmqKyL9iV5NwRu-36" edge="1">
          <mxGeometry width="50" height="50" relative="1" as="geometry">
            <mxPoint as="sourcePoint" />
            <mxPoint x="130" y="20" as="targetPoint" />
          </mxGeometry>
        </mxCell>
        <mxCell id="1g4MeJjmqKyL9iV5NwRu-44" value="" style="endArrow=classic;html=1;entryX=0;entryY=0.5;entryDx=0;entryDy=0;" parent="1" target="1g4MeJjmqKyL9iV5NwRu-37" edge="1">
          <mxGeometry width="50" height="50" relative="1" as="geometry">
            <mxPoint as="sourcePoint" />
            <mxPoint x="150" y="210" as="targetPoint" />
          </mxGeometry>
        </mxCell>
        <mxCell id="Ib6W-M3aO9yZ4it2axo6-1" value="RESTAURANT FINDER" style="text;html=1;strokeColor=none;fillColor=none;align=center;verticalAlign=middle;whiteSpace=wrap;rounded=0;" vertex="1" parent="1">
          <mxGeometry x="390" y="-490" width="300" height="50" as="geometry" />
        </mxCell>
      </root>
    </mxGraphModel>
  </diagram>
</mxfile>
